<mxfile host="app.diagrams.net" modified="2021-06-10T01:52:25.438Z" agent="5.0 (Windows NT 10.0; Win64; x64) AppleWebKit/537.36 (KHTML, like Gecko) Chrome/91.0.4472.77 Safari/537.36 Edg/91.0.864.41" etag="9WwrShdXLC5-ul8FlaGK" version="14.7.6" type="github">
  <diagram id="wbBkRim464r0cEf9g8TG" name="Page-1">
    <mxGraphModel dx="1240" dy="743" grid="1" gridSize="10" guides="1" tooltips="1" connect="1" arrows="1" fold="1" page="1" pageScale="1" pageWidth="850" pageHeight="1100" math="0" shadow="0">
      <root>
        <mxCell id="0" />
        <mxCell id="1" parent="0" />
        <mxCell id="sXFEb_yNwSjlRJIzM0JI-1" value="&lt;font style=&quot;font-size: 14px&quot;&gt;Khách Hàng&lt;/font&gt;" style="whiteSpace=wrap;html=1;align=center;" vertex="1" parent="1">
          <mxGeometry x="280" y="180" width="100" height="40" as="geometry" />
        </mxCell>
        <mxCell id="sXFEb_yNwSjlRJIzM0JI-2" value="&lt;font style=&quot;font-size: 14px&quot;&gt;MaKH&lt;/font&gt;" style="ellipse;whiteSpace=wrap;html=1;align=center;" vertex="1" parent="1">
          <mxGeometry x="110" y="90" width="100" height="40" as="geometry" />
        </mxCell>
        <mxCell id="sXFEb_yNwSjlRJIzM0JI-3" value="&lt;font style=&quot;font-size: 14px&quot;&gt;TenKH&lt;/font&gt;" style="ellipse;whiteSpace=wrap;html=1;align=center;" vertex="1" parent="1">
          <mxGeometry x="230" y="70" width="100" height="40" as="geometry" />
        </mxCell>
        <mxCell id="sXFEb_yNwSjlRJIzM0JI-4" value="&lt;font style=&quot;font-size: 14px&quot;&gt;DIACHI&lt;/font&gt;" style="ellipse;whiteSpace=wrap;html=1;align=center;" vertex="1" parent="1">
          <mxGeometry x="360" y="70" width="100" height="40" as="geometry" />
        </mxCell>
        <mxCell id="sXFEb_yNwSjlRJIzM0JI-5" value="&lt;font style=&quot;font-size: 14px&quot;&gt;NgaySinh&lt;/font&gt;" style="ellipse;whiteSpace=wrap;html=1;align=center;" vertex="1" parent="1">
          <mxGeometry x="470" y="100" width="100" height="40" as="geometry" />
        </mxCell>
        <mxCell id="sXFEb_yNwSjlRJIzM0JI-6" value="&lt;font style=&quot;font-size: 14px&quot;&gt;Hóa Đơn&lt;/font&gt;" style="whiteSpace=wrap;html=1;align=center;" vertex="1" parent="1">
          <mxGeometry x="110" y="380" width="100" height="40" as="geometry" />
        </mxCell>
        <mxCell id="sXFEb_yNwSjlRJIzM0JI-7" value="&lt;font style=&quot;font-size: 14px&quot;&gt;Sản Phẩm&lt;/font&gt;" style="whiteSpace=wrap;html=1;align=center;" vertex="1" parent="1">
          <mxGeometry x="440" y="380" width="100" height="40" as="geometry" />
        </mxCell>
      </root>
    </mxGraphModel>
  </diagram>
</mxfile>
